<svg height="512pt" viewBox="-14 0 512 512" width="512pt" xmlns="http://www.w3.org/2000/svg"><path d="m484.5 232.273438c0-68.761719-57.539062-123.964844-126.105469-123.964844-.640625 0-1.285156.003906-1.929687.015625-33.28125.5-64.488282 13.839843-87.875 37.5625-17.441406 17.691406-29.039063 39.65625-33.824219 63.5 17.488281 12.554687 28.007813 27.195312 34.261719 39.304687 10.851562 21.015625 11.492187 38.808594 11.53125 40.769532l.175781 9.238281-8.171875 4.3125c-20.003906 10.558593-40.15625 15.824219-60.011719 15.824219-24.816406 0-49.167969-8.222657-72.226562-24.609376-30.15625-21.4375-47.234375-49.449218-47.945313-50.632812l25.679688-15.507812c.144531.242187 15.039062 24.445312 40.351562 42.1875 29.015625 20.332031 59.519532 23.902343 90.800782 10.65625-2.382813-10.570313-8.941407-28.304688-26.890626-43.25-7.574218-6.304688-16.46875-10.746094-25.863281-13.710938-19.972656-6.304688-35.921875-22.484375-41.40625-43.574219l-20.171875-77.554687c-2.980468-11.460938-9.851562-21.09375-18.972656-27.644532l15.226562-32.902343v-2.660157c0-19-15.539062-35.179687-34.539062-35.167968-3.886719 0-7.664062.640625-11.226562 1.863281-5.722657-4.050781-12.644532-6.328125-19.9375-6.328125-13.035157 0-24.507813 7.3125-30.371094 18.140625-16.128906 2.890625-28.40625 17.023437-28.40625 33.972656 0 7.558594 2.398437 14.734375 6.9375 20.757813l2.0625 2.738281 32.195312 16.660156-47.847656 22.242188 34.511719 20.253906-4.558594 8.703125c-4.996094 9.539062-4.859375 21.121094.890625 30.226562 4.351562 6.882813 11.144531 11.542969 18.910156 13.164063v66.355469c0 35.871094 15.03125 71.476562 41.238282 97.683594l55.351562 55.355468v60.691406c0 8.25-6.6875 14.9375-14.933594 14.9375h-48.195312v30.117188h95.734375c24.878906 0 45.050781-20.171875 45.050781-45.050781v-86.445313l55.058594-30.589844.617187-.34375 25.691407-17.617187c10.941406-7.503906 18.328124-19.332031 20.265624-32.457031 1.125-7.613282.367188-15.339844-2.085937-22.503906 8.8125 2.199218 16.964844 6.714843 25.671875 13.886718 25.28125 20.820313 35.421875 59.144532 21.375 88.671875l-20 34.667969s43.332031-18 58.628906-36.808594c17.902344-22.007812 27.117188-49.53125 25.574219-77.8125-1.574219-28.890625-14.125-55.058594-35.335937-73.683594-17.835938-15.660156-35.339844-23.554687-50-27.371093 4.28125-1.433594 9.1875-2.359375 14.78125-2.289063 41.589843.433594 84.695312 22.238282 94.351562 67.296875 4 18.667969 2 46 2 46s23.90625-34 23.90625-77.277343zm-290.617188 234.675781c0 8.234375-6.699218 14.933593-14.933593 14.933593h-5.042969c1.648438-4.675781 2.554688-9.699218 2.554688-14.933593v-60.039063l17.421874-9.675781zm0 0"/></svg>